<svg width="128" height="128" viewBox="0 0 128 128" fill="none" xmlns="http://www.w3.org/2000/svg">
<path d="M125.807 78.2691C126.22 76.6922 126.577 75.0988 126.876 73.4922C127.529 69.9866 127.908 66.4179 128 62.8192L46.1161 61.1235L90.5831 73.2339L102.226 76.7484C100.372 81.7003 97.6198 86.3076 94.0722 90.3052C93.1923 91.2966 92.2714 92.2418 91.3131 93.1386C92.5425 92.8453 93.7636 92.4932 94.9725 92.0821C104.471 88.8523 112.563 82.2048 117.736 73.381L125.807 78.2691Z" fill="black"/>
<path d="M55.4295 21.3363C63.0622 19.5153 71.0494 19.9517 78.4352 22.6641C87.7513 26.0854 95.4734 32.8938 100.16 41.8179L118.68 31.3271C117.44 29.0237 115.981 26.8358 114.313 24.797C107.972 17.0425 99.0552 11.9743 89.2279 10.5391C79.4006 9.1038 69.3349 11.3996 60.9106 16.9976C58.9599 18.2939 57.128 19.7467 55.4295 21.3363Z" fill="black"/>
<path d="M44.7665 0C43.635 0.387297 42.5111 0.807523 41.3959 1.26065C26.8495 7.17149 14.8 18.2769 7.49779 32.5028C0.195565 46.7287 -1.86008 63.1024 1.71474 78.5661C5.28956 94.0297 14.2504 107.526 26.9238 116.534C39.5972 125.543 55.1166 129.447 70.5837 127.518C82.0151 126.093 92.8401 121.553 101.976 114.475C101.936 114.489 101.895 114.502 101.855 114.516C87.0156 119.562 70.993 118.924 56.7791 112.72C42.5652 106.517 31.132 95.1723 24.6146 80.8058C18.0973 66.4393 16.9415 50.0329 21.3631 34.6506C25.3386 20.8201 33.5785 8.66785 44.7665 0Z" fill="black"/>
</svg>
